<svg xmlns="http://www.w3.org/2000/svg" xmlns:xlink="http://www.w3.org/1999/xlink"><defs>
<linearGradient id="paint1_linear" x1="4.21053" y1="0.457144" x2="13.147" y2="3.43295" gradientUnits="userSpaceOnUse">
<stop offset="100%" stop-color="#FFC341"/>
<stop offset="0.963542" stop-color="#FFD701"/>
</linearGradient>

<linearGradient x1="16.8421" y1="1.82858" x2="52.588" y2="13.7318" gradientUnits="userSpaceOnUse">
<stop offset="100%" stop-color="#FFC341"/>
<stop offset="0.963542" stop-color="#FFD701"/>
</linearGradient>
<linearGradient x1="30.6316" y1="8.02857" x2="55.5095" y2="19.0743" gradientUnits="userSpaceOnUse">
<stop offset="100%" stop-color="#FFC341"/>
<stop offset="0.963542" stop-color="#FFD701"/>
</linearGradient>
</defs><symbol id="icon-checkbox-checked" viewBox="0 0 20 20"><path d="M0 11l2-2 5 5L18 3l2 2L7 18z"/></symbol><symbol id="icon-checkbox" viewBox="0 0 16 16">
<rect x="1" y="1" width="14" height="14" rx="1" stroke="url(#paint0_linear)" stroke-width="2"/>

</symbol><symbol id="icon-checkmark" viewBox="0 0 71 64">
<rect x="3" y="3" width="58" height="58" rx="29" stroke="url(#paint0_linear)" stroke-width="6"/>
<path d="M18 27.88L32.1972 43L66 7" stroke="url(#paint1_linear)" stroke-width="9" stroke-linecap="round" stroke-linejoin="round"/>

</symbol><symbol id="icon-cursor" viewBox="0 0 477.883 477.883">
<g>
	<path d="M468.456,1.808c-4.811-2.411-10.478-2.411-15.289,0l0,0L9.433,223.675c-8.429,4.219-11.842,14.471-7.624,22.9
		c2.401,4.798,6.919,8.188,12.197,9.151l176.111,32.034l32.034,176.111c1.311,7.219,7.091,12.793,14.353,13.841
		c0.803,0.116,1.613,0.173,2.423,0.171c6.469,0.003,12.383-3.651,15.275-9.438L476.07,24.711
		C480.292,16.284,476.883,6.03,468.456,1.808z"/>
</g>
</symbol><symbol id="icon-fb" viewBox="0 0 15 28">
<path d="M11.7171 4.91672H14.2V0.591924C13.7716 0.532991 12.2984 0.400391 10.5827 0.400391C7.00278 0.400391 4.55045 2.65232 4.55045 6.79126V10.6004H0.599976V15.4352H4.55045V27.6004H9.39391V15.4363H13.1846L13.7863 10.6015H9.39278V7.27066C9.39391 5.87326 9.77015 4.91672 11.7171 4.91672Z" fill="black"/>
</symbol><symbol id="icon-insta" viewBox="0 0 32 32">
<path d="M16 11.2002C13.3531 11.2002 11.2 13.3533 11.2 16.0002C11.2 18.6471 13.3531 20.8002 16 20.8002C18.6468 20.8002 20.8 18.6471 20.8 16.0002C20.8 13.3533 18.6468 11.2002 16 11.2002Z"/>
<path fill-rule="evenodd" clip-rule="evenodd" d="M3.19995 23.4811V8.51926C3.19995 5.5816 5.58136 3.2002 8.51901 3.2002H23.4809C26.4185 3.2002 28.8 5.5816 28.8 8.51926V23.4811C28.8 26.4188 26.4185 28.8002 23.4809 28.8002H8.51901C5.58136 28.8002 3.19995 26.4188 3.19995 23.4811ZM8.74651 13.2885C6.56792 19.6027 12.3975 25.4322 18.7117 23.2536C20.84 22.5196 22.5193 20.8402 23.2534 18.7121C25.432 12.3977 19.6025 6.56816 13.2881 8.74676C11.16 9.48082 9.48058 11.1604 8.74651 13.2885ZM24 8.80016C24.8836 8.80016 25.6 8.08382 25.6 7.20016C25.6 6.31651 24.8836 5.60016 24 5.60016C23.1163 5.60016 22.4 6.31651 22.4 7.20016C22.4 8.08382 23.1163 8.80016 24 8.80016Z"/>
</symbol><symbol id="icon-marker" viewBox="-119 -21 682 682.66669"><path d="m216.210938 0c-122.664063 0-222.460938 99.796875-222.460938 222.460938 0 154.175781 222.679688 417.539062 222.679688 417.539062s222.242187-270.945312 222.242187-417.539062c0-122.664063-99.792969-222.460938-222.460937-222.460938zm67.121093 287.597656c-18.507812 18.503906-42.8125 27.757813-67.121093 27.757813-24.304688 0-48.617188-9.253907-67.117188-27.757813-37.011719-37.007812-37.011719-97.226562 0-134.238281 17.921875-17.929687 41.761719-27.804687 67.117188-27.804687 25.355468 0 49.191406 9.878906 67.121093 27.804687 37.011719 37.011719 37.011719 97.230469 0 134.238281zm0 0"/></symbol><symbol id="icon-play" viewBox="0 0 15 19">
<path d="M15 9.5L0 19V0L15 9.5Z" fill="#1FC0FC"/>
</symbol><symbol id="icon-telegram" viewBox="0 0 22 18">
<path d="M8.63262 11.8632L8.2687 16.8888C8.78938 16.8888 9.01488 16.6692 9.2853 16.4055L11.7264 14.115L16.7847 17.7519C17.7124 18.2595 18.366 17.9922 18.6163 16.914L21.9365 1.63926L21.9374 1.63836C22.2317 0.291963 21.4415 -0.234534 20.5377 0.0957645L1.02135 7.43163C-0.310594 7.93922 -0.290427 8.66822 0.794932 8.99852L5.78447 10.5222L17.3742 3.40235C17.9196 3.04775 18.4155 3.24395 18.0076 3.59855L8.63262 11.8632Z" fill="black"/>
</symbol><symbol id="icon-twitter" viewBox="0 0 30 24">
<path d="M29.7691 2.8412C28.6707 3.32304 27.5002 3.64242 26.2799 3.7975C27.5353 3.04797 28.4934 1.87013 28.9439 0.450457C27.7734 1.1483 26.4811 1.64121 25.1039 1.91629C23.9925 0.732915 22.4086 0 20.6806 0C17.328 0 14.629 2.7212 14.629 6.05717C14.629 6.53716 14.6696 6.99869 14.7693 7.43807C9.73486 7.19254 5.28013 4.77964 2.28755 1.10399C1.76509 2.01044 1.45864 3.04797 1.45864 4.16488C1.45864 6.26209 2.53862 8.12114 4.14845 9.19744C3.17554 9.17898 2.22109 8.89652 1.41248 8.4516C1.41248 8.47006 1.41248 8.49406 1.41248 8.51806C1.41248 11.4608 3.51154 13.9051 6.26412 14.4682C5.7712 14.6029 5.23398 14.6675 4.67645 14.6675C4.28876 14.6675 3.89738 14.6454 3.53 14.5641C4.31461 16.9623 6.54104 18.7253 9.1884 18.7826C7.12811 20.3942 4.51214 21.3653 1.68017 21.3653C1.18356 21.3653 0.70726 21.3432 0.230957 21.2822C2.91339 23.0121 6.09243 23.9997 9.5207 23.9997C20.664 23.9997 26.7562 14.7691 26.7562 6.76793C26.7562 6.50024 26.747 6.24178 26.7341 5.98517C27.9359 5.13225 28.9457 4.06703 29.7691 2.8412Z" fill="black"/>
</symbol><symbol id="icon-whatsapp" viewBox="0 0 24 24">
<g opacity="0.16">
<path d="M12.0025 2H11.9975C6.48375 2 2 6.485 2 12C2 14.1875 2.705 16.215 3.90375 17.8612L2.6575 21.5763L6.50125 20.3475C8.0825 21.395 9.96875 22 12.0025 22C17.5162 22 22 17.5138 22 12C22 6.48625 17.5162 2 12.0025 2ZM17.8212 16.1213C17.58 16.8025 16.6225 17.3675 15.8587 17.5325C15.3363 17.6437 14.6537 17.7325 12.3562 16.78C9.4175 15.5625 7.525 12.5763 7.3775 12.3825C7.23625 12.1887 6.19 10.8013 6.19 9.36625C6.19 7.93125 6.91875 7.2325 7.2125 6.9325C7.45375 6.68625 7.8525 6.57375 8.235 6.57375C8.35875 6.57375 8.47 6.58 8.57 6.585C8.86375 6.5975 9.01125 6.615 9.205 7.07875C9.44625 7.66 10.0337 9.095 10.1038 9.2425C10.175 9.39 10.2463 9.59 10.1462 9.78375C10.0525 9.98375 9.97 10.0725 9.8225 10.2425C9.675 10.4125 9.535 10.5425 9.3875 10.725C9.2525 10.8837 9.1 11.0538 9.27 11.3475C9.44 11.635 10.0275 12.5937 10.8925 13.3637C12.0087 14.3575 12.9137 14.675 13.2375 14.81C13.4787 14.91 13.7662 14.8863 13.9425 14.6988C14.1663 14.4575 14.4425 14.0575 14.7238 13.6638C14.9237 13.3813 15.1763 13.3462 15.4412 13.4462C15.7113 13.54 17.14 14.2462 17.4338 14.3925C17.7275 14.54 17.9212 14.61 17.9925 14.7338C18.0625 14.8575 18.0625 15.4388 17.8212 16.1213Z" fill="black"/>
</g>
</symbol></svg>