<svg xmlns="http://www.w3.org/2000/svg" xmlns:xlink="http://www.w3.org/1999/xlink"><defs>
<linearGradient id="paint0_linear" x1="4.21053" y1="0.457144" x2="13.147" y2="3.43295" gradientUnits="userSpaceOnUse">
<stop stop-color="#FFC341"/>
<stop offset="0.963542" stop-color="#FFD701"/>
</linearGradient>

<linearGradient id="paint0_linear" x1="16.8421" y1="1.82858" x2="52.588" y2="13.7318" gradientUnits="userSpaceOnUse">
<stop stop-color="#FFC341"/>
<stop offset="0.963542" stop-color="#FFD701"/>
</linearGradient>
<linearGradient id="paint1_linear" x1="30.6316" y1="8.02857" x2="55.5095" y2="19.0743" gradientUnits="userSpaceOnUse">
<stop stop-color="#FFC341"/>
<stop offset="0.963542" stop-color="#FFD701"/>
</linearGradient>
</defs><symbol id="icon-checkbox-checked" viewBox="0 0 20 20"><path d="M0 11l2-2 5 5L18 3l2 2L7 18z"/></symbol><symbol id="icon-checkbox" viewBox="0 0 16 16">
<rect x="1" y="1" width="14" height="14" rx="1" stroke="url(#paint0_linear)" stroke-width="2"/>

</symbol><symbol id="icon-checkmark" viewBox="0 0 71 64">
<rect x="3" y="3" width="58" height="58" rx="29" stroke="url(#paint0_linear)" stroke-width="6"/>
<path d="M18 27.88L32.1972 43L66 7" stroke="url(#paint1_linear)" stroke-width="9" stroke-linecap="round" stroke-linejoin="round"/>

</symbol><symbol id="icon-fb" viewBox="0 0 15 28">
<path d="M11.7171 4.91672H14.2V0.591924C13.7716 0.532991 12.2984 0.400391 10.5827 0.400391C7.00278 0.400391 4.55045 2.65232 4.55045 6.79126V10.6004H0.599976V15.4352H4.55045V27.6004H9.39391V15.4363H13.1846L13.7863 10.6015H9.39278V7.27066C9.39391 5.87326 9.77015 4.91672 11.7171 4.91672Z" fill="black"/>
</symbol><symbol id="icon-insta" viewBox="0 0 32 32">
<path d="M16 11.2002C13.3531 11.2002 11.2 13.3533 11.2 16.0002C11.2 18.6471 13.3531 20.8002 16 20.8002C18.6468 20.8002 20.8 18.6471 20.8 16.0002C20.8 13.3533 18.6468 11.2002 16 11.2002Z" fill="black"/>
<path fill-rule="evenodd" clip-rule="evenodd" d="M3.19995 23.4811V8.51926C3.19995 5.5816 5.58136 3.2002 8.51901 3.2002H23.4809C26.4185 3.2002 28.8 5.5816 28.8 8.51926V23.4811C28.8 26.4188 26.4185 28.8002 23.4809 28.8002H8.51901C5.58136 28.8002 3.19995 26.4188 3.19995 23.4811ZM8.74651 13.2885C6.56792 19.6027 12.3975 25.4322 18.7117 23.2536C20.84 22.5196 22.5193 20.8402 23.2534 18.7121C25.432 12.3977 19.6025 6.56816 13.2881 8.74676C11.16 9.48082 9.48058 11.1604 8.74651 13.2885ZM24 8.80016C24.8836 8.80016 25.6 8.08382 25.6 7.20016C25.6 6.31651 24.8836 5.60016 24 5.60016C23.1163 5.60016 22.4 6.31651 22.4 7.20016C22.4 8.08382 23.1163 8.80016 24 8.80016Z" fill="black"/>
</symbol><symbol id="icon-play" viewBox="0 0 15 19">
<path d="M15 9.5L0 19V0L15 9.5Z" fill="#1FC0FC"/>
</symbol><symbol id="icon-twitter" viewBox="0 0 30 24">
<path d="M29.7691 2.8412C28.6707 3.32304 27.5002 3.64242 26.2799 3.7975C27.5353 3.04797 28.4934 1.87013 28.9439 0.450457C27.7734 1.1483 26.4811 1.64121 25.1039 1.91629C23.9925 0.732915 22.4086 0 20.6806 0C17.328 0 14.629 2.7212 14.629 6.05717C14.629 6.53716 14.6696 6.99869 14.7693 7.43807C9.73486 7.19254 5.28013 4.77964 2.28755 1.10399C1.76509 2.01044 1.45864 3.04797 1.45864 4.16488C1.45864 6.26209 2.53862 8.12114 4.14845 9.19744C3.17554 9.17898 2.22109 8.89652 1.41248 8.4516C1.41248 8.47006 1.41248 8.49406 1.41248 8.51806C1.41248 11.4608 3.51154 13.9051 6.26412 14.4682C5.7712 14.6029 5.23398 14.6675 4.67645 14.6675C4.28876 14.6675 3.89738 14.6454 3.53 14.5641C4.31461 16.9623 6.54104 18.7253 9.1884 18.7826C7.12811 20.3942 4.51214 21.3653 1.68017 21.3653C1.18356 21.3653 0.70726 21.3432 0.230957 21.2822C2.91339 23.0121 6.09243 23.9997 9.5207 23.9997C20.664 23.9997 26.7562 14.7691 26.7562 6.76793C26.7562 6.50024 26.747 6.24178 26.7341 5.98517C27.9359 5.13225 28.9457 4.06703 29.7691 2.8412Z" fill="black"/>
</symbol></svg>